<svg width="62" height="61" viewBox="0 0 62 61" fill="none" xmlns="http://www.w3.org/2000/svg">
<path d="M3.25 24.0503C3.25 21.9885 4.28046 20.063 5.99602 18.9193L27.5793 4.53044C29.6507 3.14952 32.3493 3.14952 34.4207 4.53044L56.004 18.9193C57.7195 20.063 58.75 21.9885 58.75 24.0503V51.5833C58.75 54.9891 55.9891 57.75 52.5833 57.75H9.41667C6.01091 57.75 3.25 54.9891 3.25 51.5833V24.0503Z" fill="url(#paint0_linear_415_978)"/>
<path d="M3.25 51.5833V24.0503C3.25 21.9885 4.28046 20.063 5.99602 18.9193L27.5793 4.53044C29.6507 3.14952 32.3493 3.14952 34.4207 4.53044L56.004 18.9193C57.7195 20.063 58.75 21.9885 58.75 24.0503V51.5833M3.25 51.5833C3.25 54.9891 6.01091 57.75 9.41667 57.75H52.5833C55.9891 57.75 58.75 54.9891 58.75 51.5833M3.25 51.5833L24.0625 37.7083M58.75 51.5833L37.9375 37.7083M3.25 23.8333L24.0625 37.7083M58.75 23.8333L37.9375 37.7083M37.9375 37.7083L34.4207 40.0529C32.3493 41.4338 29.6507 41.4338 27.5793 40.0529L24.0625 37.7083" stroke="url(#paint1_linear_415_978)" stroke-width="6" stroke-linecap="round" stroke-linejoin="round"/>
<defs>
<linearGradient id="paint0_linear_415_978" x1="-3.4024" y1="40.2301" x2="70.2088" y2="27.951" gradientUnits="userSpaceOnUse">
<stop stop-color="#FADDE1" stop-opacity="0.32"/>
<stop offset="1" stop-color="#FFC4D6" stop-opacity="0.26"/>
</linearGradient>
<linearGradient id="paint1_linear_415_978" x1="-3.4024" y1="40.2301" x2="70.2088" y2="27.951" gradientUnits="userSpaceOnUse">
<stop stop-color="#6941C6"/>
<stop offset="1" stop-color="#B692F6"/>
</linearGradient>
</defs>
</svg>
